PathFileType	4	(X/Y/Z)	Patient4_TMGait_0pt8_01_left_04.trc.trc
DataRate	CameraRate	NumFrames	NumMarkers	Units	OrigDataRate	OrigDataStartFrame	OrigNumFrames
86.956521739130	86.956521739130	5	33	mm	86.956521739130	71	       141
Frame#	Time	Sacral			L.Shoulder			Chest			R.Shoulder			Neck			R.ASIS			L.ASIS			R.Thigh.Superior			R.Thigh.Lateral			R.Thigh.Inferior			R.Patella			L.Thigh.Superior			L.Thigh.Lateral			L.Thigh.Inferior			L.Patella			L.Shank.Superior			L.Shank.Lateral			L.Shank.Inferior			R.Shank.Superior			R.Shank.Lateral			R.Shank.Inferior			R.Heel			R.Midfoot.Superior			R.Midfoot.Lateral			R.Toe			L.Heel			L.Midfoot.Lateral			L.Midfoot.Superior			L.Toe			L.Elbow			L.Wrist			R.Elbow			R.Wrist			
		X1	Y1	Z1	X2	Y2	Z2	X3	Y3	Z3	X4	Y4	Z4	X5	Y5	Z5	X6	Y6	Z6	X7	Y7	Z7	X8	Y8	Z8	X9	Y9	Z9	X10	Y10	Z10	X11	Y11	Z11	X12	Y12	Z12	X13	Y13	Z13	X14	Y14	Z14	X15	Y15	Z15	X16	Y16	Z16	X17	Y17	Z17	X18	Y18	Z18	X19	Y19	Z19	X20	Y20	Z20	X21	Y21	Z21	X22	Y22	Z22	X23	Y23	Z23	X24	Y24	Z24	X25	Y25	Z25	X26	Y26	Z26	X27	Y27	Z27	X28	Y28	Z28	X29	Y29	Z29	X30	Y30	Z30	X31	Y31	Z31	X32	Y32	Z32	X33	Y33	Z33	

71	4.385000000000	786.204930363065	989.130228093538	444.291457472299	967.546161912283	1413.711220341070	266.569234519602	1053.017053201428	1354.308658598385	440.830148882633	948.963833911423	1432.990922843221	601.394862040795	943.047893899816	1480.970562383685	418.480399567049	1009.715837323475	925.886266173109	573.439525765399	1008.084877863801	957.219726509009	297.853206168033	1088.223157528927	760.940319386767	546.855378931386	1050.810312712433	637.254929947883	621.976092256897	1143.670714597297	604.098163767208	543.925953798309	1182.129618127920	525.786229437148	563.301560086427	1006.110668366658	727.728579620837	322.363835565965	885.204381938598	633.413953736365	265.695417268038	944.985766696135	539.765959215050	329.811765514994	928.607833434683	473.153662478979	340.622398430827	894.483526050688	407.365212797208	335.519514408198	788.425681547519	302.974796106600	292.449117611517	830.200382208659	189.431882820576	367.704299308222	1174.391704032547	438.578429785930	573.902699084439	1130.317365286574	319.447268646430	633.999418976422	1212.159180192740	241.976668426831	587.111742395799	1144.701647919654	43.691302997972	554.138441629270	1294.619960441421	137.311780774810	603.475035474547	1222.745209540803	53.909074710685	633.874838415614	1419.683918488643	116.823591626032	640.928788562963	692.374369041432	39.030730455910	421.859800123138	764.236098169507	34.773011851445	339.449355266545	848.394689001238	95.939022619378	363.134682453367	975.344516716624	46.005137058353	333.776893838535	1067.561015087515	1092.612193952749	124.748964229260	1315.805960525114	1018.193102384691	151.596630719899	773.063538860543	1148.469166873116	721.305940417606	702.603319644475	902.264960914026	766.134122294938	
72	4.396500000000	787.782041354369	987.369318875121	446.637275464428	967.746126002894	1412.197651089877	268.140916183130	1053.643365404117	1352.941818400634	442.195248237115	949.754379116428	1431.597416902377	602.949407817599	943.513054060761	1479.399563178891	420.052405731407	1011.674960548847	924.229774580028	574.791528620212	1008.763901435575	955.513375368423	299.195197893271	1089.154284236016	757.878526350493	547.622563653395	1050.369276442964	634.093335932691	621.955768291406	1142.623348752048	600.587930783066	543.554029265406	1180.127782733610	522.670455642077	561.775625695991	1005.662710020880	725.818240059459	323.551242091004	883.844856452172	632.320824582059	266.956026628642	943.028346835674	538.087415499325	330.912408010158	925.940433491230	471.140274509354	341.729107860698	890.733079958370	405.725914131245	336.488400660078	783.116102803199	303.118465599607	293.082525212115	822.793210430478	188.786415062053	368.087371190763	1173.102573414114	435.395403855794	572.389048107237	1129.845015259685	315.942778370285	632.143282897566	1211.870767297066	239.135912148232	584.736870348940	1145.074752769339	41.486583435050	552.298055821373	1295.050847456776	134.790487776567	599.896203105333	1223.559028345654	51.988391561347	631.443542731977	1420.454489170159	114.667726072732	636.738863444243	683.178889880648	39.473887563637	421.642403815935	755.106873571064	34.927401237997	339.402372857370	839.464272470340	95.846363730995	363.164766573289	966.245781806842	45.352367011765	333.764074198050	1067.122141680567	1091.478341438227	125.455883867766	1317.145557009912	1025.798682392931	153.702011974290	770.771272211250	1149.840468845795	722.900720726962	698.042721405736	904.137878139259	767.142078955373	
73	4.408000000000	789.488215943827	985.567857642078	449.222514098849	967.894761936797	1410.686734764591	269.791317488308	1054.311370205500	1351.647904336239	443.620825382534	950.593415954466	1430.228337269744	604.609135520655	943.991783996411	1477.860739302489	421.711546995426	1013.805963567181	922.639291778186	576.268634682160	1009.562956358036	953.810123747753	300.680554032596	1090.673672727150	755.148845154431	548.503037246458	1050.489373873272	631.185633422576	621.902895508077	1142.180069618994	597.498702526668	543.198690963551	1178.734116369656	519.643045500419	560.347298129549	1005.519635125111	723.986683617480	324.788721914731	882.755040605571	631.250087968538	268.362107663715	941.522478473671	536.396536216607	331.952265074997	923.773790700891	469.050561856722	342.757614514325	887.323299067545	404.056325669992	337.435414205036	778.002501323449	303.416109514242	293.790421296433	815.488228430779	188.218915608685	368.393652582518	1171.877419022325	432.060412747538	570.961901888296	1128.573500801085	312.612826365586	630.336402569812	1210.153838954201	235.881999433485	582.435294944388	1142.330417486248	39.962422065933	550.422642224822	1293.188590744128	131.183231015171	596.467433783289	1221.217498433994	49.868286160719	629.082889767735	1418.595863322571	109.959400347546	632.758573815293	673.998445564311	40.158988794338	421.338866145565	746.024262049559	35.154387893797	339.308726456465	830.616379954831	95.808269331827	363.114896834094	957.214407651722	44.599731498732	333.751967812796	1066.339140241342	1090.155116259949	126.328761022878	1317.670189832728	1032.499640016005	155.828047119050	769.410473093199	1150.534872044758	724.506965177153	694.996335698429	905.125209506164	768.217676449006	
74	4.419500000000	791.303335787793	983.795544939799	452.023858356658	968.014501270769	1409.222575009401	271.520645580779	1055.038430307447	1350.466743800846	445.110846202852	951.496612821074	1428.916961816824	606.376367372168	944.505994044164	1476.405681290792	423.462706630959	1016.094205411170	921.167924160891	577.861532692079	1010.461271711961	952.152603539674	302.311554798457	1092.720153223465	752.767139783061	549.501185702478	1051.105169207113	628.597053430279	621.887961712131	1142.293587754105	594.875200419368	542.925474603660	1177.918349312822	516.782264503935	559.098822588148	1005.650008133500	722.268338439857	326.035949374241	881.911395633448	630.251319813372	269.892787505208	940.451565390414	534.737743112251	332.902185443143	922.112771713362	466.931036705560	343.652279538594	884.244647177249	402.416272009422	338.322377294922	773.078137821701	303.923847238486	294.554109200961	808.306623995264	187.784533608007	368.587833869229	1170.791378823726	428.706574130682	569.721738190965	1126.771979472787	309.524062254819	628.758735082408	1207.368935665735	232.365170931605	580.362227956623	1137.061865036509	39.065666374994	548.703176249193	1289.542226186472	126.729868509880	593.373218066265	1216.350048676216	47.603322699824	626.962935168901	1414.678153704766	103.108503170173	629.100542671998	664.841148183405	41.161004473601	420.942934444496	736.991235515118	35.478499378866	339.160321305605	821.874788933640	95.835759238765	362.956684570642	948.252881741865	43.764159473359	333.737181053856	1065.186396147974	1088.650539365864	127.381433473093	1317.442972313210	1038.205386494484	157.961782741316	769.027031567991	1150.514381268472	726.145557011016	693.522925455409	905.195926952294	769.388311479711	
75	4.431000000000	793.203347143303	982.131793255831	455.012311384777	968.134472031413	1407.858072484200	273.327320933272	1055.843208160580	1349.442601190655	446.667547210087	952.483803079037	1427.706476026893	608.249086066683	945.081795532832	1475.094232711914	425.307428161518	1018.518295264787	919.882520279375	579.563692600243	1011.444335989051	950.590688652444	304.091695552611	1095.201793806067	750.760780347530	550.628598113933	1052.150887892634	626.405372652857	622.002612682744	1142.910059966788	592.764259310944	542.819244699387	1177.629175324943	514.172713008020	558.127453410763	1006.025164509480	720.703222016288	327.272387209453	881.309710328076	629.370549829585	271.529513050393	939.811950834156	533.160634329128	333.754266148695	920.971146296735	464.831594792261	344.372943749619	881.502860180182	400.865507553050	339.120163037255	768.355169621146	304.699480548162	295.358292744978	801.285454057401	187.541001927136	368.641840121188	1169.903713928811	425.485215354351	568.767083074364	1124.708220675187	306.767539554486	627.575893598340	1203.869260564243	228.780608683477	578.645199769775	1129.914970713204	38.727529288301	547.287062222202	1284.601766180322	121.772001286503	590.757522332592	1209.622416685545	45.301765583444	625.211683986847	1409.252609532379	94.738314922409	625.851726698340	655.723106461474	42.561603566399	420.455087737616	728.010356966424	35.930738153278	338.953917476407	813.269835604238	95.936581108522	362.663890541447	939.356595369107	42.874838227773	333.717813058755	1063.640311232538	1086.981667206183	128.633020196832	1316.526152164252	1042.834945420855	160.094066148623	769.655238831223	1149.782362428588	727.846170553231	693.697478620014	904.350405256122	770.662749599642	
